<svg width="13" height="17" viewBox="0 0 13 17" fill="none" xmlns="http://www.w3.org/2000/svg">
<path d="M10.8584 9.04064C10.8404 6.89287 12.5111 5.84764 12.5871 5.79932C11.6409 4.33151 10.1741 4.13033 9.65874 4.11459C8.42636 3.97635 7.232 4.89907 6.60472 4.89907C5.97744 4.89907 4.99851 4.12808 3.95621 4.15056C2.61612 4.17304 1.36262 4.99798 0.674094 6.28035C-0.745202 8.89453 0.312934 12.736 1.67309 14.8489C2.35317 15.8841 3.14836 17.0394 4.18854 16.999C5.20655 16.9551 5.58671 16.3089 6.81487 16.3089C8.04303 16.3089 8.38834 16.999 9.44965 16.9731C10.5416 16.9551 11.2301 15.9335 11.8859 14.8894C12.6716 13.7037 12.9873 12.5348 13 12.4753C12.9747 12.4663 10.8795 11.6144 10.8584 9.04064ZM8.85405 2.72433C9.40107 1.99604 9.77596 1.00477 9.67247 0C8.88045 0.0370887 7.8899 0.583303 7.31859 1.29586C6.81381 1.92411 6.36289 2.95248 6.47905 3.92016C7.36928 3.99096 8.28274 3.4425 8.85405 2.72545V2.72433Z" fill="white"/>
</svg>
