<svg width="18" height="18" viewBox="0 0 18 18" fill="none" xmlns="http://www.w3.org/2000/svg">
<circle cx="9" cy="9" r="9" fill="white"/>
<path d="M10.173 4.5C10.7181 4.5 11.16 4.9419 11.16 5.487V11.36C11.16 12.312 10.8847 13.054 10.334 13.586C9.78333 14.1087 9.046 14.37 8.122 14.37C7.18867 14.37 6.43267 14.0993 5.854 13.558C5.49354 13.2153 5.24719 12.7865 5.11495 12.2717C4.9788 11.7416 5.44364 11.29 5.99089 11.29C6.52956 11.29 6.90351 11.7695 7.21075 12.212C7.22459 12.2319 7.23901 12.2513 7.254 12.27C7.45 12.5033 7.73 12.62 8.094 12.62C8.44867 12.62 8.71933 12.508 8.906 12.284C9.09267 12.06 9.186 11.752 9.186 11.36V5.487C9.186 4.9419 9.62789 4.5 10.173 4.5Z" fill="black"/>
</svg>
